<?xml version="1.0" encoding="utf-8"?>
<!-- Generator: Adobe Illustrator 16.0.0, SVG Export Plug-In . SVG Version: 6.00 Build 0)  -->
<!DOCTYPE svg PUBLIC "-//W3C//DTD SVG 1.1//EN" "http://www.w3.org/Graphics/SVG/1.1/DTD/svg11.dtd">
<svg version="1.1" id="Layer_1" xmlns="http://www.w3.org/2000/svg" xmlns:xlink="http://www.w3.org/1999/xlink" x="0px" y="0px"
	 width="464.615px" height="464.615px" viewBox="0 0 464.615 464.615" enable-background="new 0 0 464.615 464.615"
	 xml:space="preserve">
<circle fill-rule="evenodd" clip-rule="evenodd" fill="#FEE101" stroke="#000000" stroke-width="16" stroke-miterlimit="10" cx="232.211" cy="232.188" r="214.553"/>
<path fill-rule="evenodd" clip-rule="evenodd" d="M268.319,146.892c1.326-0.17,2.594-0.497,3.872-0.794
	c1.006-0.232,1.976-0.675,3.069-0.756c1.015-0.072,2.024-0.655,3.102-0.718c1.733-0.104,3.448-1.08,5.217-0.029
	c0.784,0.465,1.741,0.115,2.622,0.334c1.166,0.291,2.395,0.234,3.596,0.476c0.701,0.145,1.492,0.208,2.247,0.251
	c1.19,0.065,2.307,0.364,3.22,1.146c0.246,0.207,0.455,0.167,0.697,0.225c0.83,0.2,1.729,0.367,2.188,1.227
	c0.189,0.354,0.64,0.27,0.827,0.336c0.949,0.313,1.278,1.181,1.911,1.752c0.739,0.665,1.038,1.805,2.204,2.006
	c0.167,1.322,1.455,1.92,1.99,3.049c0.307,0.652,0.753,0.977,0.092,1.641c-0.966,0.966-1.513,1.051-2.702,0.021
	c-0.679-0.589-1.512-0.934-2.178-1.466c-0.616-0.486-1.386-0.618-1.949-1.169c-0.313-0.305-0.755-0.546-1.298-0.319
	c-0.609,0.252-1.042-0.368-1.642-0.452c-0.809-0.104-1.707-0.155-2.446-0.434c-1.576-0.589-3.294-0.308-4.815-0.986
	c-0.656-0.293-1.239,0.207-1.949-0.02c-0.827-0.273-1.799-0.113-2.708-0.142c-0.511-0.015-1.014,0.006-1.499,0.19
	c-0.086,0.034-0.19,0.08-0.273,0.065c-1.596-0.302-2.946,0.681-4.423,0.831c-1.312,0.135-2.583,0.713-3.902,0.521
	c-1.618-0.238-2.952,0.539-4.364,1.022c-0.746,0.253-1.527,0.337-2.256,0.627c-1.461,0.583-2.867,1.244-4.069,2.295
	c-0.351,0.309-0.869,0.451-1.332,0.605c-1.405,0.459-2.621,1.279-3.583,2.333c-0.888,0.977-2.057,1.447-3.075,2.187
	c-0.618,0.451-1.204,0.871-1.455,1.647c-0.057,0.175-0.285,0.321-0.47,0.425c-0.868,0.488-1.432,1.311-2.155,1.945
	c-0.625,0.549-1.247,1.118-1.733,1.755c-0.945,1.248-2.549,1.806-3.271,3.324c-0.192,0.396-0.807,0.993-1.492,1.085
	c-1.451,0.192-2.016-0.48-1.695-2.109c0.093-0.44,0.229-0.839,0.059-1.282c-0.038-0.11-0.063-0.322-0.009-0.356
	c0.801-0.518,0.767-1.426,0.796-2.147c0.04-1.12,1.424-1.937,0.65-3.212c-0.127-0.207,0.304-0.348,0.379-0.674
	c0.165-0.755,0.317-1.471,0.234-2.264c-0.103-1.063,0.768-1.797,1.145-2.701c0.713-1.719,1.368-3.475,2.235-5.136
	c0.305-0.583,0.788-0.995,1.102-1.551c1.198-2.121,3.166-3.582,4.698-5.409c1.022-1.224,2.441-1.992,3.391-3.253
	c0.541-0.724,1.304-1.15,1.971-1.695c1.134-0.919,2.243-1.875,3.456-2.679c0.718-0.472,1.553-0.778,2.287-1.278
	c0.793-0.54,1.677-1.002,2.595-1.285c1.56-0.477,3.123-0.979,4.738-1.273c1.043-0.186,2.052-0.509,3.112-0.672
	c2.018-0.307,3.975-1.054,6.069-0.709c0.147,0.025,0.32-0.005,0.461-0.058c1.902-0.73,3.713-0.058,5.544,0.346
	c0.844,0.184,1.549,0.781,2.513,0.672c0.703-0.08,1.354,0.432,1.303,1.152c-0.031,0.452-0.396,1.087-1.133,1.096
	c-0.368,0.005-0.467,0.482-0.859,0.528c-1.622,0.184-3.088,0.932-4.521,1.609c-0.818,0.386-1.925,0.498-2.441,1.458
	c-0.21,0.388-0.443-0.069-0.729,0.022c-0.686,0.218-1.217,0.665-1.812,0.986c-0.821,0.449-1.627,0.822-2.558,0.874
	c-0.55,0.034-0.543,0.659-0.96,0.836c-1.888,0.819-3.644,1.931-5.702,2.374c-0.813,0.175-1.582,0.572-2.364,0.89
	c-0.284,0.118-0.664,0.291-0.526,0.667C267.673,147.009,268.068,146.843,268.319,146.892z"/>
<g>
	<path fill-rule="evenodd" clip-rule="evenodd" d="M142.502,328.903c2.201,1.738,4.076,3.276,6.012,4.728
		c1.491,1.115,3.115,2.045,4.587,3.179c3.851,2.969,7.575,6.111,11.506,8.965c2.039,1.479,4.393,2.532,6.633,3.711
		c2.072,1.087,4.165,2.138,6.289,3.123c2.292,1.064,4.607,2.088,6.953,3.027c3.521,1.414,7.053,2.787,10.621,4.063
		c1.073,0.383,2.278,0.396,3.421,0.557c1.839,0.265,3.689,0.13,5.5,0.926c1.196,0.52,2.73,0.224,4.088,0.427
		c2.452,0.364,5.131,0.333,7.257,1.389c2.11,1.053,4.156-0.2,6.093,0.76c0.948,0.466,2.04,0.643,3.063,0.963
		c0.327,0.103,0.636,0.284,0.965,0.348c3.3,0.606,6.582,1.526,9.904,1.711c4.091,0.223,8.218-0.137,12.328-0.309
		c1.656-0.071,3.3-0.396,4.954-0.466c1.897-0.084,3.553-0.735,5.116-1.735c1.105-0.71,2.098-1.179,3.649-0.892
		c1.265,0.236,2.878,0.207,4.077-1.58c1.147-1.71,3.163-2.856,5.597-3.213c2.098-0.308,4.062-1.547,6.074-2.412
		c1.217-0.524,2.603-0.888,3.564-1.727c2.299-2.006,5.635-2.043,7.701-4.741c1.758-2.294,4.48-3.866,6.828-5.69
		c0.339-0.265,1.036-0.034,1.466-0.238c1.311-0.623,2.654-1.229,3.837-2.058c2.424-1.702,4.79-3.492,7.101-5.34
		c1.592-1.273,2.978-2.801,4.593-4.043c1.447-1.118,3.095-1.978,4.625-2.988c1.197-0.785,2.328-1.667,3.534-2.438
		c1.551-0.989,2.467-2.75,4.565-3.173c1.144-0.235,2.138-1.457,3.086-2.35c2.572-2.43,5.076-4.922,7.612-7.385
		c1.072-1.036,2.263-1.975,3.205-3.117c1.344-1.631,2.511-3.405,3.76-5.118c1.383-1.908,2.862-3.759,4.142-5.736
		c2.979-4.599,5.789-9.303,8.815-13.867c1.24-1.866,2.941-3.427,4.272-5.241c1.042-1.408,1.786-3.03,2.76-4.494
		c1.066-1.604,2.259-3.12,3.374-4.696c0.555-0.784,1.053-1.609,1.58-2.414c2.402-3.624,4.973-7.144,5.586-11.658
		c0.314-2.307,0.867-4.602,1.523-6.837c0.748-2.547,2.713-4.305,4.835-5.624c0.894-0.558,2.592-0.359,3.701,0.071
		c2.737,1.058,5.373,2.396,7.998,3.725c1.163,0.586,2.192,1.431,3.294,2.149c0.231,0.155,0.551,0.426,0.744,0.363
		c1.537-0.49,2.04,0.838,2.937,1.545c1.788,1.409,3.67,2.69,5.472,4.081c2.86,2.202,6.215,3.682,8.275,7.012
		c1.694,2.73,4.297,4.875,6.266,7.456c1.506,1.976,2.079,4.391,1.975,6.908c-0.021,0.52-0.227,1.051-0.158,1.553
		c0.248,1.929-0.787,3.016-2.413,3.596c-1.346,0.48-2.769,0.742-4.155,1.098c-0.165,0.044-0.378,0.029-0.484,0.133
		c-1.899,1.836-4.474,1.803-6.791,2.48c-2.593,0.76-5.377,1.204-7.684,2.485c-1.831,1.018-3.579,0.519-5.32,0.914
		c-0.396,0.089-0.798,0.127-1.189,0.22c-1.423,0.332-2.838,0.681-4.259,1.021c-2.296,0.556-4.623,1.016-6.874,1.723
		c-0.705,0.221-1.257,1.077-1.776,1.721c-2.011,2.491-3.914,5.069-5.989,7.507c-1.564,1.839-3.37,3.477-5.006,5.262
		c-1.481,1.623-2.816,3.394-4.333,4.975c-1.752,1.821-3.647,3.508-5.47,5.266c-0.542,0.52-1.059,1.073-1.577,1.62
		c-2.799,2.939-5.537,5.94-8.419,8.794c-1.001,0.994-2.387,1.586-3.545,2.434c-1.404,1.031-2.722,2.187-4.142,3.205
		c-3.016,2.166-6.114,4.224-9.11,6.431c-1.649,1.213-3.113,2.67-4.734,3.935c-0.825,0.646-1.806,1.09-2.7,1.649
		c-1.455,0.91-2.882,1.865-4.341,2.765c-1.513,0.934-3.064,1.802-4.578,2.732c-3.561,2.193-7.083,4.446-10.67,6.587
		c-1.68,1-3.507,1.733-5.207,2.696c-2.553,1.445-5.04,2.993-7.571,4.48c-0.281,0.164-0.665,0.141-0.959,0.285
		c-1.229,0.6-2.445,1.231-3.67,1.845c-1.641,0.82-3.289,1.614-4.923,2.459c-2.327,1.201-4.699,2.098-6.776,4.035
		c-2.155,2.012-5.416,2.833-8.193,4.182c-0.244,0.116-0.515,0.222-0.703,0.398c-2.444,2.334-5.564,3.15-8.655,4.19
		c-3.206,1.077-6.384,0.454-9.572,0.604c-3.148,0.147-6.293,0.357-9.439,0.483c-2.629,0.105-5.293,0.368-7.889,0.074
		c-1.04-0.12-2.166-0.402-3.257-0.494c-2.289-0.19-4.593-0.193-6.886-0.382c-2.416-0.198-4.823-0.566-7.236-0.79
		c-2.416-0.225-4.7-0.744-6.979-1.688c-1.745-0.722-3.868-0.479-5.695-1.062c-4.104-1.314-8.42-1.64-12.496-3.282
		c-3.859-1.556-7.771-3.153-11.776-4.273c-2.024-0.569-3.046-2.366-5.037-2.846c-1.419-0.342-2.623-1.5-4.022-2.034
		c-4.742-1.797-8.897-4.771-13.697-6.524c-2.787-1.014-5.178-3.144-7.697-4.842c-3.453-2.328-6.871-4.703-10.276-7.101
		c-1.73-1.22-3.379-2.546-5.091-3.788c-1.684-1.222-3.443-2.346-5.092-3.609c-1.923-1.467-3.884-2.914-5.602-4.599
		c-1.405-1.374-2.438-3.115-3.718-4.621c-0.533-0.623-1.273-1.074-1.938-1.577c-0.216-0.161-0.553-0.179-0.733-0.365
		c-2.156-2.265-4.354-4.495-6.414-6.846c-1.635-1.867-3.012-3.961-4.646-5.835c-1.553-1.777-3.332-3.361-4.932-5.101
		c-0.694-0.752-1.333-1.617-1.744-2.539c-1.242-2.779-3.881-4.372-5.558-6.769c-1.292-1.844-2.702-3.612-3.898-5.518
		c-1.591-2.552-2.974-5.235-4.557-7.799c-0.864-1.41-1.875-2.765-3.001-3.975c-0.261-0.281-1.441-0.107-1.896,0.25
		c-2.339,1.839-4.485,0.787-6.535-0.391c-2.488-1.432-3.535-4.007-4.695-6.472c-0.931-1.984-1.437-4.035-0.851-6.167
		c0.459-1.67,1.299-3.231,1.754-4.903c0.69-2.556,0.986-5.236,1.839-7.73c0.936-2.736,0.085-5.593,0.953-8.282
		c1.04-3.214,2.104-6.412,3.119-9.633c0.525-1.673,0.937-3.383,1.467-5.053c0.249-0.764,0.627-1.494,1-2.209
		c1.121-2.146,2.098-4.395,3.477-6.363c0.657-0.935,2.032-1.601,3.202-1.879c1.529-0.366,3.195-0.124,4.777-0.337
		c2.242-0.301,4.058,0.712,5.615,1.955c1.874,1.497,3.597,3.225,4.477,5.627c0.289,0.787,1.322,1.275,1.738,2.052
		c1.13,2.104,1.648,4.397,1.616,6.797c-0.002,0.265-0.118,0.571-0.021,0.784c1.415,3.112,1.391,6.523,1.302,9.742
		c-0.06,2.084,0.355,4.627-1.342,6.547c-0.225,0.256-0.155,0.77-0.231,1.167c-0.355,1.96-0.807,3.907-1.029,5.886
		c-0.094,0.836,0.151,1.787,0.483,2.586c0.816,1.945,2.096,3.753,2.599,5.762c0.748,2.949,2.587,5.09,4.299,7.399
		c0.707,0.954,0.996,2.22,1.477,3.339c0.661,1.545,1.477,2.962,2.598,4.264c0.896,1.045,1.287,2.507,2.092,3.652
		c1.082,1.543,2.271,2.978,3.714,4.278c1.594,1.432,2.608,3.492,3.987,5.187c2.308,2.834,4.725,5.576,7.052,8.393
		c1.075,1.299,2,2.725,3.076,4.023c1.095,1.326,2.304,2.556,3.441,3.846c0.783,0.885,1.484,1.846,2.3,2.695
		c1.949,2.026,3.925,4.023,5.943,5.983C141.967,329.076,142.526,328.903,142.502,328.903z"/>
	<path fill-rule="evenodd" clip-rule="evenodd" d="M199.061,143.802c0.171,2.184,0.424,4.36,0.478,6.543
		c0.041,1.549-0.192,3.102-0.29,4.653c-0.108,1.751-0.203,3.503-0.304,5.253c-0.017,0.293,0.016,0.589-0.04,0.868
		c-0.421,2.044-1.267,4.099-1.19,6.115c0.104,2.519-0.488,4.708-1.868,6.616c-1.526,2.112-3.415,3.966-5.11,5.955
		c-1.897,2.227-4.609,2.202-7.043,2.072c-1.571-0.083-3.104-1.411-4.596-2.285c-0.763-0.442-1.358-1.183-2.109-1.679
		c-3.206-2.103-4.442-5.502-5.051-8.896c-0.687-3.828-0.99-7.854-0.604-11.708c0.437-4.365,0.708-8.931,2.594-12.963
		c1.056-2.251,1.682-4.607,2.679-6.835c0.486-1.083,1.685-1.83,2.452-2.817c0.859-1.1,1.758-2.22,2.35-3.473
		c1.036-2.184,3.044-3.193,4.904-4.325c1.057-0.644,2.408-0.958,3.665-1.089c2.985-0.317,4.54,1.885,5.698,4.02
		C198.013,134.143,198.91,138.908,199.061,143.802z M182.972,177.604c-0.037,0.198-0.076,0.393-0.112,0.592
		c1.129,0.181,2.278,0.597,3.382,0.491c1.615-0.155,2.975-1.799,2.864-3.043c2.837,0.512,4.188-2.954,5.303-6.852
		c-1.357,1.414-2.995,2.749-3.718,4.466c-0.466,1.11-0.799,1.265-1.777,1.463c-0.585,0.121-1.025,0.948-1.534,1.451
		c-0.26,0.25-0.488,0.632-0.787,0.707C185.397,177.172,184.179,177.373,182.972,177.604z M175.121,166.657
		c-0.288,0.124-0.581,0.238-0.869,0.356c0.438,1.055,0.874,2.112,1.314,3.17c0.216-0.084,0.437-0.167,0.658-0.25
		C175.857,168.841,175.489,167.752,175.121,166.657z M195.317,163.355c-1.72,1.488-1.517,2.787-0.593,4.583
		C194.941,166.277,195.1,165.03,195.317,163.355z"/>
	<path fill-rule="evenodd" clip-rule="evenodd" d="M182.972,177.604c1.207-0.231,2.425-0.432,3.622-0.725
		c0.299-0.074,0.527-0.456,0.787-0.707c0.509-0.503,0.949-1.33,1.534-1.451c0.978-0.198,1.311-0.354,1.777-1.463
		c0.723-1.717,2.361-3.052,3.718-4.466c-1.116,3.898-2.466,7.364-5.303,6.852c0.111,1.244-1.249,2.888-2.864,3.043
		c-1.104,0.105-2.253-0.31-3.382-0.491C182.896,177.997,182.935,177.802,182.972,177.604z"/>
	<path fill-rule="evenodd" clip-rule="evenodd" d="M175.121,166.657c0.369,1.095,0.737,2.184,1.103,3.276
		c-0.221,0.084-0.442,0.167-0.658,0.25c-0.44-1.058-0.876-2.115-1.314-3.17C174.54,166.896,174.833,166.781,175.121,166.657z"/>
	<path fill-rule="evenodd" clip-rule="evenodd" d="M195.317,163.355c-0.217,1.675-0.376,2.922-0.593,4.583
		C193.8,166.142,193.597,164.844,195.317,163.355z"/>
</g>
</svg>
